<svg width="61" height="41" viewBox="0 0 61 41" fill="none" xmlns="http://www.w3.org/2000/svg">
<path d="M47.8654 0H41.4151C40.3917 0 39.5544 0.836957 39.5544 1.85991C39.5544 2.88285 40.3917 3.71981 41.4151 3.71981H47.8654C48.8888 3.71981 49.7261 2.88285 49.7261 1.85991C49.7261 0.836957 48.8578 0 47.8654 0Z" fill="black"/>
<path d="M50.0981 7.84277H39.0271C38.0037 7.84277 37.1664 8.67973 37.1664 9.70268C37.1664 10.7256 38.0037 11.5626 39.0271 11.5626H50.0981C51.1214 11.5626 51.9587 10.7256 51.9587 9.70268C51.9277 8.67973 51.1214 7.84277 50.0981 7.84277Z" fill="black"/>
<path d="M53.2302 3.71981C52.2025 3.71981 51.3695 2.8871 51.3695 1.85991C51.3695 0.832708 52.2025 0 53.2302 0C54.2578 0 55.0908 0.832708 55.0908 1.85991C55.0908 2.8871 54.2578 3.71981 53.2302 3.71981Z" fill="black"/>
<path d="M36.4791 0H1.41019C0.634537 0 -9.15527e-05 0.836479 -9.15527e-05 1.85884C-9.15527e-05 2.88121 0.634537 3.71769 1.41019 3.71769H36.4791C37.2548 3.71769 37.8894 2.88121 37.8894 1.85884C37.8894 0.836479 37.2548 0 36.4791 0Z" fill="black"/>
<path d="M44.8355 15.3755H4.19165C3.29269 15.3755 2.55717 16.2124 2.55717 17.2354C2.55717 18.2583 3.29269 19.0953 4.19165 19.0953H44.8355C45.7345 19.0953 46.47 18.2583 46.47 17.2354C46.4427 16.1814 45.7345 15.3755 44.8355 15.3755Z" fill="black"/>
<path d="M34.8235 7.90088H8.18016C7.51659 7.90088 6.97367 8.73736 6.97367 9.75972C6.97367 10.7821 7.51659 11.6186 8.18016 11.6186H34.8235C35.4871 11.6186 36.03 10.7821 36.03 9.75972C36.0099 8.73736 35.467 7.90088 34.8235 7.90088Z" fill="black"/>
<path d="M47.8654 0H41.4151C40.3917 0 39.5544 0.836957 39.5544 1.85991C39.5544 2.88285 40.3917 3.71981 41.4151 3.71981H47.8654C48.8888 3.71981 49.7261 2.88285 49.7261 1.85991C49.7261 0.836957 48.8578 0 47.8654 0Z" fill="black"/>
<path d="M53.672 22.5981H22.3394C21.559 22.5981 20.9205 23.4351 20.9205 24.4581C20.9205 25.481 21.559 26.318 22.3394 26.318H53.672C54.4523 26.318 55.0908 25.481 55.0908 24.4581C55.0908 23.4351 54.4523 22.5981 53.672 22.5981Z" fill="black"/>
<path d="M50.0981 7.84277H39.0271C38.0037 7.84277 37.1664 8.67973 37.1664 9.70268C37.1664 10.7256 38.0037 11.5626 39.0271 11.5626H50.0981C51.1214 11.5626 51.9587 10.7256 51.9587 9.70268C51.9277 8.67973 51.1214 7.84277 50.0981 7.84277Z" fill="black"/>
<path d="M12.1374 22.5391H5.74907C4.7257 22.5391 3.8884 23.376 3.8884 24.399C3.8884 25.4219 4.7257 26.2589 5.74907 26.2589H12.1374C13.1607 26.2589 13.998 25.4219 13.998 24.399C13.967 23.376 13.1607 22.5391 12.1374 22.5391Z" fill="black"/>
<path d="M58.3442 37.1387H51.9559C50.9325 37.1387 50.0952 37.9756 50.0952 38.9986C50.0952 40.0215 50.9325 40.8585 51.9559 40.8585H58.3442C59.3675 40.8585 60.2048 40.0215 60.2048 38.9986C60.2048 37.9446 59.3675 37.1387 58.3442 37.1387Z" fill="black"/>
<path d="M18.4948 29.916H10.773C9.74965 29.916 8.91235 30.753 8.91235 31.7759C8.91235 32.7989 9.74965 33.6358 10.773 33.6358H18.4948C19.5182 33.6358 20.3555 32.7989 20.3555 31.7759C20.3555 30.722 19.5182 29.916 18.4948 29.916Z" fill="black"/>
<path d="M35.1746 37.1177H9.38625C8.6154 37.1177 7.98471 37.9542 7.98471 38.9765C7.98471 39.9989 8.6154 40.8354 9.38625 40.8354H35.1746C35.9455 40.8354 36.5762 39.9989 36.5762 38.9765C36.5762 37.9232 35.9455 37.1177 35.1746 37.1177Z" fill="black"/>
<path d="M53.5592 29.9146H23.0792C22.3201 29.9146 21.699 30.751 21.699 31.7734C21.699 32.7958 22.3201 33.6322 23.0792 33.6322H53.5592C54.3184 33.6322 54.9395 32.7958 54.9395 31.7734C54.9395 30.72 54.3184 29.9146 53.5592 29.9146Z" fill="black"/>
<path d="M47.0871 37.1387H39.4273C38.404 37.1387 37.5667 37.9756 37.5667 38.9986C37.5667 40.0215 38.404 40.8585 39.4273 40.8585H47.1181C48.1415 40.8585 48.9788 40.0215 48.9788 38.9986C48.9477 37.9446 48.1104 37.1387 47.0871 37.1387Z" fill="black"/>
<path d="M17.8744 26.2589C16.8468 26.2589 16.0138 25.4262 16.0138 24.399C16.0138 23.3718 16.8468 22.5391 17.8744 22.5391C18.9021 22.5391 19.7351 23.3718 19.7351 24.399C19.7351 25.4262 18.9021 26.2589 17.8744 26.2589Z" fill="black"/>
<path d="M53.2302 3.71981C52.2025 3.71981 51.3695 2.8871 51.3695 1.85991C51.3695 0.832708 52.2025 0 53.2302 0C54.2578 0 55.0908 0.832708 55.0908 1.85991C55.0908 2.8871 54.2578 3.71981 53.2302 3.71981Z" fill="black"/>
</svg>
